<svg width="71" height="72" viewBox="0 0 71 72" fill="none" xmlns="http://www.w3.org/2000/svg">
<g id="Group">
<g id="Group_2">
<g id="Group_3">
<path id="Vector" d="M69.9475 16.2944C69.7648 16.2231 69.5643 16.3166 69.493 16.4991C69.0607 17.5988 68.5348 18.6183 67.853 19.4909C67.697 19.6868 67.5276 19.8694 67.3538 20.0519C67.4341 19.3663 67.5098 18.6807 67.5722 17.9906C67.7014 16.7707 67.7906 15.5731 67.8797 14.3221C67.9154 13.8457 67.6926 13.3649 67.2603 13.0888L67.1578 13.0265L67.1489 13.0221C66.3601 12.6347 65.9367 12.7416 65.5267 12.7549C65.1345 12.7995 64.8003 12.893 64.4794 12.9909C64.1897 13.0799 63.9179 13.1912 63.6549 13.3115C63.6638 13.2402 63.6728 13.169 63.6772 13.0978C63.909 10.983 64.1273 8.87718 64.4571 6.75798V6.75354C64.5551 6.06792 64.1184 5.40455 63.4321 5.24428L63.392 5.23538C63.0979 5.16415 62.9553 5.15969 62.7592 5.14633C62.5765 5.13298 62.3982 5.13743 62.2199 5.13743C61.8679 5.15524 61.5247 5.19086 61.1905 5.26209C60.522 5.40011 59.8892 5.63606 59.3232 5.96551C58.7661 6.30387 58.2581 6.69121 57.8525 7.14977C57.4292 7.59498 57.0994 8.08916 56.8053 8.58334C56.6894 8.77923 56.7028 9.04191 56.8587 9.22444C57.0548 9.45595 57.4069 9.48267 57.6342 9.28232L57.6654 9.25561C58.0486 8.92616 58.4408 8.61896 58.8597 8.4008C59.2697 8.16484 59.7109 8.02683 60.1298 7.93334C60.5532 7.84875 60.9766 7.8443 61.3777 7.89773C61.391 7.89773 61.3999 7.90218 61.4133 7.90663C61.5693 9.60287 61.6406 11.308 61.6629 13.0043C61.6629 13.5162 61.6629 14.0327 61.654 14.5447C61.0657 14.9943 60.5265 15.5019 60.0585 16.1118C59.6886 16.5882 59.3811 17.1091 59.1494 17.6745C58.9266 18.2488 58.7082 18.832 58.775 19.6112C58.8107 19.9807 58.9622 20.5105 59.4524 20.8533C59.7198 21.0269 59.8981 21.0714 60.1165 21.1204C60.3348 21.1649 60.5844 21.1738 60.8206 21.116C61.3064 21.0091 61.6584 20.7197 61.8946 20.4481C62.1397 20.1677 62.3046 19.8872 62.4383 19.6067C62.7102 19.0457 62.8661 18.4937 63.0087 17.9505C63.1558 17.4118 63.2405 16.8197 63.3162 16.2944C63.3296 16.1831 63.343 16.0762 63.3564 15.9693C63.4811 15.9159 63.6059 15.8625 63.7351 15.818C64.0961 15.6889 64.466 15.6265 64.8136 15.5954C64.9562 17.532 64.9964 19.4954 64.9161 21.4231C64.9072 21.6725 64.8894 21.9218 64.876 22.1667L63.958 22.8701C63.7084 23.0615 63.4945 23.2084 63.2316 23.4489C62.9686 23.6759 62.7191 23.9163 62.5051 24.2146C62.0818 24.7934 61.6941 25.4701 61.6361 26.3427C61.6228 26.7746 61.6584 27.2509 61.9347 27.7184C62.2021 28.1948 62.7904 28.5509 63.3653 28.5554C63.958 28.5777 64.368 28.315 64.7245 28.0746C65.0543 27.8119 65.3128 27.5225 65.5178 27.2198C65.7317 26.9215 65.8966 26.5742 66.0392 26.2626C66.155 25.9509 66.2976 25.6259 66.3734 25.3232C66.6274 24.4773 66.7923 23.6447 66.9394 22.8122C67.7015 22.0643 68.4323 21.2317 68.9894 20.2612C69.649 19.1392 69.9921 17.8926 70.1614 16.6772C70.1926 16.5125 70.1035 16.3522 69.9475 16.2944ZM60.3527 19.5755C60.3571 19.5755 60.3571 19.5755 60.3527 19.5755C60.3259 19.5622 60.3348 19.5711 60.3527 19.5755ZM61.4267 17.581C61.3375 18.0618 61.1905 18.5248 61.0122 18.9211C60.8473 19.3262 60.5621 19.6023 60.4952 19.5933C60.4774 19.6023 60.4551 19.6023 60.415 19.5978C60.4017 19.5978 60.3839 19.5933 60.3705 19.5889C60.366 19.5755 60.3527 19.5355 60.3482 19.4553C60.3215 19.1793 60.4462 18.7207 60.6423 18.3379C60.8473 17.9461 61.1147 17.5721 61.4222 17.2426C61.44 17.2204 61.4668 17.207 61.4846 17.1848C61.4712 17.3139 61.4579 17.443 61.4267 17.581ZM62.3804 8.21827L62.3581 8.18711C62.3804 8.20492 62.3937 8.21381 62.3804 8.21827ZM64.3234 25.5903C64.2343 25.8263 64.1585 26.0355 64.0426 26.2314C63.8287 26.6544 63.4633 26.8992 63.392 26.8992C63.3652 26.9037 63.3875 26.9215 63.343 26.8814C63.3207 26.8235 63.2939 26.6811 63.3385 26.5208C63.4143 26.1869 63.6861 25.7995 64.0293 25.4745C64.163 25.3321 64.3145 25.1941 64.4749 25.0516C64.4259 25.2297 64.368 25.4078 64.3234 25.5903ZM65.4509 15.68L65.4063 15.5998C65.4554 15.6087 65.5044 15.6132 65.5445 15.6265C65.6559 15.6443 65.7763 15.8002 65.4509 15.68Z" fill="white"/>
<path id="Vector_2" d="M66.3377 65.5969L61.5648 66.4117L61.4979 66.0199C61.4266 65.6014 61.03 65.3209 60.6111 65.3921L60.3437 65.4366C59.8891 64.938 59.2296 64.6486 58.5165 64.7688L51.4084 65.9798C50.6954 66.1 50.165 66.5942 49.9021 67.213L49.8041 67.2308C49.3851 67.3021 49.1044 67.6983 49.1757 68.1168L49.2024 68.2726C48.0705 68.2504 46.9252 68.0055 45.8021 67.5959C44.4429 67.1062 43.1149 66.425 41.8046 65.6592C45.2763 65.0092 48.6899 63.8695 51.8273 62.0931C53.7748 60.9757 55.6421 59.6489 57.2241 57.9304C58.0129 57.0667 58.7527 56.1318 59.3187 55.001C59.5995 54.4356 59.8446 53.8212 59.9872 53.1133C60.1253 52.4188 60.1699 51.5684 59.8134 50.6691L59.8713 50.8383C59.6797 50.2462 59.5014 49.8188 59.0558 49.2355C58.8508 48.955 58.4319 48.6211 58.1422 48.4876C57.8302 48.3229 57.5628 48.2294 57.2999 48.1537C56.2794 47.8776 55.4282 47.842 54.5592 47.802C52.8523 47.753 51.2123 47.842 49.5768 47.9489C46.3146 48.1848 43.097 48.5187 39.875 48.7681C36.6529 49.0174 33.4353 49.2088 30.2222 49.289C27.0135 49.3513 23.8003 49.329 20.6719 48.955C17.5746 48.59 14.4907 47.8153 11.9237 46.3461C10.6625 45.6115 9.55734 44.6766 8.83538 43.5591C9.03593 43.6615 9.23203 43.7684 9.43257 43.8708C12.4585 45.3578 15.7653 46.3818 19.1165 46.7513C22.4099 47.1653 25.7612 47.2588 29.0323 46.9472C30.6634 46.8092 32.2855 46.5554 33.823 46.3996C34.5806 46.3328 35.3472 46.2838 35.9265 46.4396C36.2117 46.5242 36.4434 46.6355 36.6351 46.867C36.8223 47.0941 36.9827 47.4191 37.0852 47.7797L37.0896 47.802C37.1342 47.9578 37.2768 48.0735 37.4506 48.0735C37.6556 48.0735 37.825 47.9044 37.825 47.6996C37.825 47.2633 37.7938 46.7824 37.571 46.315C37.357 45.843 36.9381 45.4201 36.4791 45.1886C35.5522 44.7122 34.6519 44.6499 33.8097 44.5831C32.1117 44.4852 30.5118 44.552 28.9119 44.5698C25.73 44.6098 22.5837 44.543 19.4597 44.1201C16.3758 43.7506 13.4256 42.7978 10.6626 41.4132C9.69551 40.928 8.76407 40.3804 7.88169 39.7838C7.92625 39.1427 8.05995 38.4927 8.27386 37.8516C8.51005 37.1348 8.74181 36.6495 9.09387 36.2266C9.77126 35.3807 10.9879 34.8909 12.4006 34.6906C13.8088 34.4903 15.3508 34.4813 16.9017 34.5793C18.4615 34.6505 20.0435 34.8286 21.6478 34.9666L26.4921 35.4296C27.3076 35.4964 28.1231 35.5632 28.9476 35.6077L31.3675 35.7235C34.545 35.906 37.7002 36.5649 40.8376 37.3218C41.6219 37.5132 42.4063 37.7136 43.2084 37.8961C43.614 37.9851 44.015 38.0697 44.4562 38.132C44.6657 38.1588 44.9465 38.181 45.2228 38.141C45.4723 38.1009 45.7531 38.0341 46.0339 37.8471C46.3191 37.6646 46.5419 37.3262 46.6132 37.0146C46.689 36.7029 46.6756 36.4314 46.6444 36.1909C46.5776 35.7057 46.4305 35.2961 46.2834 34.8954C45.9804 34.1029 45.6239 33.3728 45.2807 32.6382C44.59 31.1824 43.9215 29.7354 43.4758 28.2395C43.0079 26.7614 42.9054 25.1988 42.8252 23.6049C42.7048 20.4261 42.9009 17.2073 43.2485 14.024C43.4223 12.4302 43.6362 10.8408 43.9036 9.26477C43.9437 9.02881 43.9883 8.79285 44.0329 8.55689C44.0864 9.26923 44.1265 9.99046 44.1577 10.7117C44.229 12.3055 44.2245 13.9127 44.2602 15.5377C44.327 18.7878 44.4741 22.0511 44.9108 25.3145C45.1336 26.9484 45.4233 28.5823 45.869 30.2074C46.3325 31.8279 46.9029 33.4663 47.9902 34.98C48.5429 35.7235 49.2559 36.4358 50.1918 36.9122C50.6552 37.1481 51.1678 37.3129 51.6847 37.3886C52.2239 37.4598 52.6785 37.4731 53.2578 37.3796C53.8327 37.2817 54.421 37.0368 54.8711 36.6718C55.3212 36.3111 55.6688 35.8882 55.9407 35.4564C56.4621 34.5882 56.7384 33.7067 56.9389 32.843C57.3222 31.1111 57.3846 29.4193 57.3712 27.7498C57.3489 26.0758 57.2152 24.4241 57.0102 22.7857C56.5958 19.5135 55.9719 16.2724 54.938 13.1425C53.8728 10.0261 52.5715 6.98086 50.8157 4.14934C49.9021 2.7692 48.993 1.30891 47.3574 0.373973C46.943 0.160273 46.4572 0.00445208 45.9403 0C45.6818 0 45.4278 0.0400736 45.1782 0.102403L44.5677 0.302738C43.761 0.574315 42.9767 0.948289 42.2458 1.42911C40.7529 2.37741 39.6923 3.85996 38.85 5.28017C37.9988 6.71819 37.2991 8.15176 36.4746 9.46512C34.9015 12.1364 32.7178 14.3223 30.1197 16.0186C28.8184 16.86 27.4324 17.5813 26.0108 18.2491C24.5713 18.8768 23.1096 19.4689 21.5988 19.9542C20.8501 20.2124 20.097 20.4529 19.3305 20.6666C18.5728 20.8981 17.8063 21.1073 17.0309 21.2987C15.5157 21.695 13.8579 22.0734 12.2892 22.5676C10.7027 23.0484 9.12952 23.6183 7.58757 24.3172C6.05007 25.0207 4.52594 25.8532 3.14888 27.0197C2.46257 27.6029 1.81194 28.2707 1.26824 29.0676C0.729007 29.8645 0.301166 30.795 0.109536 31.8012C-0.0776373 32.8074 -0.0196809 33.8581 0.243253 34.8063C0.492817 35.7635 0.929543 36.6184 1.42867 37.393C2.40019 38.88 3.63464 40.0598 4.9404 41.0927C5.10529 42.5485 5.65343 43.9865 6.49126 45.1574C7.59201 46.7246 9.08942 47.8509 10.6358 48.6835C13.7688 50.3174 17.1423 50.9674 20.458 51.239C27.0759 51.6975 33.5512 51.1544 40.022 50.8116C43.253 50.6335 46.4884 50.4777 49.6882 50.4421C51.2836 50.4242 52.8835 50.4331 54.4076 50.5623C55.1519 50.629 55.9228 50.7359 56.4576 50.9229C56.5824 50.9674 56.6938 51.0164 56.7339 51.052C56.8052 51.1054 56.7072 51.0297 56.7428 51.0742C56.7919 51.1321 56.9345 51.466 56.9701 51.6441L56.979 51.6797C56.988 51.7243 57.0058 51.7688 57.0281 51.8133C57.1306 52.0092 56.9969 52.864 56.5601 53.5986C56.1457 54.3554 55.5797 55.1167 54.9246 55.8113C53.6054 57.2048 52.0011 58.4202 50.2809 59.4308C46.8137 61.4565 42.8786 62.7565 38.8321 63.4421C38.6806 63.4688 38.5335 63.4866 38.382 63.5089C35.5254 61.6168 32.651 59.6222 29.5448 57.9527C25.7389 55.8736 21.4607 54.3955 17.0888 54.0616C16.0015 53.9636 14.9096 53.888 13.7732 53.9458C13.2072 53.977 12.6279 54.0349 12.0218 54.1996C11.7188 54.2797 11.4023 54.3955 11.0815 54.5736C10.7651 54.7606 10.4219 55.0588 10.2258 55.4818C10.0253 55.9047 10.0164 56.3678 10.0877 56.7284C10.159 57.0979 10.2882 57.4051 10.4264 57.69C10.7116 58.251 11.0636 58.714 11.4246 59.1503C12.1555 60.0051 12.9576 60.7931 13.8445 61.4787C15.6137 62.8544 17.6637 63.8339 19.8073 64.4572C21.9375 65.0226 24.0232 65.4411 26.1757 65.7794C30.1642 66.3894 34.2553 66.5764 38.3285 66.1757C38.6093 66.3582 38.8901 66.5452 39.1708 66.7277C40.998 67.8764 42.8965 69.0117 45.049 69.773C46.123 70.1469 47.2638 70.4185 48.4448 70.512C48.837 70.5432 49.2292 70.5387 49.6258 70.5254C49.755 70.8326 50.0625 71.0285 50.4012 70.9928C50.838 71.625 51.6045 71.9901 52.4156 71.8521L59.5237 70.6411C60.3259 70.5031 60.9275 69.911 61.1325 69.1764L61.2573 69.1541C61.6762 69.0829 61.957 68.6867 61.8857 68.2682L61.8188 67.8764L66.5917 67.0617C66.9884 66.9949 67.2557 66.6165 67.1889 66.2202C67.1131 65.7928 66.7388 65.5257 66.3377 65.5969ZM6.74528 34.2543C6.05007 35.069 5.64008 36.1019 5.39051 36.9211C5.31921 37.1481 5.25682 37.3752 5.19889 37.6067C4.64628 37.0591 4.14714 36.4759 3.7416 35.8615C2.97062 34.6995 2.57846 33.4351 2.80128 32.2731C3.00628 31.1067 3.8129 29.9848 4.9092 29.0587C7.12854 27.1978 10.0877 25.9601 13.0602 24.9851C14.5709 24.4864 16.0638 24.1169 17.6682 23.6672C18.4614 23.458 19.2502 23.2265 20.0346 22.9727C20.8234 22.7368 21.6033 22.4741 22.3832 22.1936C23.943 21.6594 25.4715 21.0094 26.9868 20.3193C28.4841 19.5891 29.9548 18.7878 31.3541 17.8484C34.135 15.9696 36.6306 13.4453 38.2261 10.4624C39.8928 7.55072 40.5835 4.274 42.9945 2.45756C43.5739 1.99454 44.2468 1.63392 44.9643 1.36679L45.4991 1.16644C45.6417 1.12637 45.7887 1.09521 45.9358 1.09966C46.2299 1.09966 46.5374 1.18871 46.8405 1.34008C47.451 1.64727 47.9858 2.20378 48.4537 2.80036C48.9306 3.39694 49.3361 4.0692 49.6971 4.76373C51.1232 7.57299 51.9833 10.6716 52.7275 13.748C53.4673 16.8333 54.1848 19.932 54.5948 23.0662C54.8042 24.6333 54.9424 26.2049 54.9781 27.7632C55.0048 29.3169 54.9469 30.8796 54.6394 32.3087C54.4834 33.0166 54.2606 33.6933 53.9486 34.2142C53.6233 34.7307 53.2801 35.0201 52.8568 35.0824C51.7204 35.2872 50.6152 34.7173 49.7952 33.5954C48.9618 32.4913 48.3824 31.0532 47.9368 29.5796C47.4911 28.0971 47.1792 26.5522 46.9296 24.9895C46.4394 21.8553 46.2166 18.6587 46.0784 15.4487C46.0071 13.846 45.9759 12.221 45.869 10.587C45.82 9.77231 45.7576 8.95758 45.6729 8.1384C45.5793 7.31031 45.4991 6.51339 45.2807 5.61852C45.2495 5.50277 45.2183 5.38702 45.1693 5.25346C45.1069 5.11545 45.0891 4.99078 44.8841 4.73256C44.8261 4.67023 44.7593 4.5901 44.6033 4.50106C44.4696 4.42092 44.2111 4.35413 43.9883 4.40755C43.5649 4.52331 43.4669 4.71921 43.3912 4.8038C43.2396 5.01304 43.204 5.13771 43.1505 5.26682C42.9767 5.75209 42.9054 6.15723 42.8252 6.56237C42.6603 7.37265 42.5266 8.18292 42.4063 8.98875C42.1656 10.6049 41.9873 12.2254 41.8447 13.846C41.5729 17.0915 41.4214 20.346 41.5684 23.6227C41.6085 24.4419 41.6709 25.2655 41.7868 26.0892C41.8759 26.9173 42.0765 27.7587 42.3216 28.5512C42.8207 30.1495 43.5159 31.6454 44.2067 33.1057C44.5498 33.8358 44.9019 34.5615 45.1738 35.2783C45.3075 35.6344 45.4278 35.995 45.4679 36.3111C45.4902 36.467 45.4857 36.605 45.4634 36.6896C45.4367 36.7742 45.4233 36.792 45.3698 36.832C45.3164 36.8721 45.196 36.9166 45.049 36.9344C44.9242 36.9567 44.7949 36.9433 44.6078 36.9255C44.2468 36.8766 43.8591 36.7964 43.4714 36.7118C42.6959 36.5382 41.9116 36.3379 41.1272 36.1464C37.9899 35.3406 34.8124 34.5837 31.5591 34.0406L29.1482 33.6933C28.3638 33.5776 27.575 33.4351 26.7862 33.2926L22.0267 32.3622C18.8224 31.7834 15.5513 31.1779 11.9594 31.6409C11.0636 31.7745 10.1411 31.9926 9.22756 32.3933C8.32734 32.8074 7.42713 33.4262 6.74528 34.2543ZM26.4341 63.7181C24.3663 63.5089 22.2628 63.1705 20.2663 62.712C18.3055 62.2312 16.4293 61.3764 14.816 60.1743C14.0094 59.5733 13.2607 58.8921 12.6145 58.1308C12.2981 57.7524 12.004 57.3561 11.8079 56.9732C11.5984 56.5859 11.5583 56.2164 11.6385 56.1273C11.6697 56.0695 11.741 55.9938 11.8792 55.9092C12.0263 55.8335 12.2134 55.7623 12.4229 55.7133C12.8462 55.6154 13.3365 55.5798 13.8311 55.5753C14.8249 55.5664 15.8544 55.6732 16.8794 55.8113C20.9927 56.3544 24.8432 57.8815 28.4886 59.8716C30.6946 61.0647 32.798 62.4493 34.9149 63.874C32.1028 64.0699 29.2596 64.0075 26.4341 63.7181Z" fill="white"/>
</g>
</g>
</g>
</svg>
